<?xml version="1.0" encoding="UTF-8"?><svg id="Layer_1" xmlns="http://www.w3.org/2000/svg" viewBox="0 0 246.13 261.33"><defs><style>.cls-1{fill:#fff;}</style></defs><path d="M206.87,117.56c9.55,2.43,21.96,5.74,27.19,14.9,2.82,4.94,3.08,11.07,1.04,16.35-.45,1.17-2.41,4.17-2.3,5.03.14,1.07,1.51,3.93,1.94,5.28.34,1.04,1.47,5.83,2.01,6.14.47.27,1.45.31,2.07.57,13.09,5.57,5.46,31.4,1.18,41.11-18.52,42-64.56,59.14-108.28,53.28-33.79-4.53-65.04-25.11-78.36-57.01-19.27-.43-37.44-16.02-39.54-35.4-.71-6.56.22-13.18,2.37-19.38-5.03-4.79-11.34-8.2-14.16-14.87-7.35-17.33,7-43.91,16.49-58.41,11.73-17.93,27.55-35.57,43.98-49.3C76.48,14.15,100.97-2.9,120.05.42c11.01,1.92,16.04,11.59,24.13,18.06,9.97-4.18,20.12-8.26,30.94-9.74,14.93-2.04,35.73.14,38.62,18.37,2.42,15.22-9.49,31.68-19.35,42.14,5.31,4.95,8.5,12.01,10.29,18.96,2.44,9.5,1.8,19.59,2.19,29.35ZM41.82,126.87c6.99-18.81,16.9-36.76,29.56-52.34,9.28-11.42,19.8-20.77,31.43-29.72,10.15-7.81,20.89-14.8,31.87-21.38-3.02-3.51-6.11-7.24-9.59-10.31-2.22-1.96-3.75-3.21-6.84-3.47-15.59-1.3-35.89,12.24-47.71,21.59-17.74,14.03-34.21,32.51-46.03,51.81-6.99,11.41-17.96,32.02-14.41,45.54,1.44,5.47,6.47,8.4,10.43,11.99,4.7-7.36,12.88-11.92,21.29-13.72ZM147.39,51.14c-.85-.79,4.88-5.26,4.79-5.63-.06-.29-.51-.36-.8-.35-1.66.08-3.81.47-5.48.78-8.16,1.52-16.13,5.11-23.09,9.52-.35-.25-.36-.4-.35-.8.08-1.84,3.12-7.06,3.1-7.47-.01-.28-.41-.33-.72-.25-1.17.3-4.86,2.71-6.11,3.49-8.6,5.38-17.72,13.28-24.46,20.86-.4.45-1.89,2.07-1.79,2.52s.32.27.6.13c1.04-.52,2.2-1.6,3.25-2.27,19.25-12.26,42.8-17.69,65.53-14.97,1.4.17,9.13,1.76,9.59,1.63.2-.06.45-.33.39-.58-.11-.53-3.85-2.1-4.56-2.39-6.26-2.58-13.13-3.92-19.9-4.21ZM224.6,181.36c.31.28-2.17,3.22-2.51,3.6-16.11,17.92-62.7,28.79-82.49,13.18-6.93-5.46-8.64-16.09-3-23.13,5.87-7.33,13.51-3.82,21.45-3.47,16.16.7,34.82-2.59,49.38-9.64,7.58-3.67,22.08-12.39,19.51-22.56-2.27-8.99-16.99-10.71-24.21-13.44-3.19-1.21-4.15-2.43-4.71-5.84-1.64-9.98,1.38-31.61-7.48-38.08-9.04-6.6-16.25,4.68-23.9,7.72-15.56,6.17-30.87-6.27-45.39,7.13-10.49,9.68-11.64,25.48-4.74,37.6,3.1,5.45,7.4,8.85,10.84,13.62,1.17,1.62,2.2,2.93,1.19,4.99-.64,1.31-3.42,3.84-4.51,5.32-14.67,19.83-11.96,49.92,7.8,65.3,33.21,25.86,92.46,6.84,103.74-33.86,1.07-3.84,2.84-11.27.41-14.66-1.17-1.64-3.58-2.36-5.48-1.96l-.27-.2c-.72-4.8-2.23-9.41-3.95-13.92-10.53,7.81-22.69,13.26-35.48,16.19-10.15,2.33-21.83,3.53-32.25,2.99-3.92-.2-11.28-2.05-14.68-.77-1.81.68-3.05,2.52-3.42,4.37,11.11,3.82,22.92,5,34.66,4.57.98-.04,6.05-.87,6.48-.27l.07.82c-.16.5-3.55,1.5-4.29,1.71-10.36,2.92-22.54,2.12-32.9-.43-1.51-.37-3.05-.82-4.5-1.37.66,7.19,9.2,10.21,15.3,11.44,20.77,4.18,44.03-2.67,62.08-12.84,1.92-1.08,4.37-3.05,6.18-3.89.38-.18.65-.3,1.09-.22ZM45.9,136.11c-21.15,1.97-28.73,27.8-17.17,43.89,11.79,16.42,38.88,20.51,43.53-3.86,3.42-17.93-4.3-42.08-26.36-40.02Z"/><path class="cls-1" d="M46.62,145.94c-5.45.47-9.55,4.22-11.4,9.22-.67,1.82-1.96,7.47-.15,8.67,2.31,1.54,3.63-4.58,4.37-5.89,2.54-4.58,8.92-5.72,12.37-1.49,3.73,4.57-.13,8.91-.35,13.76-.23,5.2,2.8,10.11,8.52,9.48,1.56-.17,5.46-2.34,4.07-4.07-.89-1.11-2.47-.02-3.61,0-2.16.04-3.87-1.58-3.95-3.74-.12-3.09,3.18-7.65,3.58-11.28.89-7.98-5.21-15.36-13.45-14.65Z"/><path d="M184.26,103.71c4.39-.65,6.04,6.33,6.66,9.53.64,3.29,1.11,7.31-.52,10.3l-5.36-.09c-2.21-3.36-3.75-7.98-4.08-12-.23-2.83-.34-7.2,3.29-7.74Z"/><path d="M158.84,129.75c-.4.35-1.38.06-1.86-.06-2.12-.55-4.27-1.94-6.53-2.58-4.48-1.28-7.57-.99-12.04.08-1.84.44-4.63,1.73-6.32,1.85-2.58.19-.8-2.57.03-3.46,5.23-5.67,15.61-6.48,22.01-2.39,1.1.7,6.38,5.11,4.7,6.57Z"/><path d="M148.77,131.31c2.56-.29,7.3.51,8.79,2.82,1.62,2.51-2.69,1.44-3.81,1.42-3.16-.07-5.28.02-8.33.8-1.39.35-5.96,2.67-4.56-.73.94-2.28,5.63-4.05,7.92-4.31Z"/><path d="M174.18,135.61c2.68-.43,6.47,1.65,6.41,4.62-.09,4.67-8.34,2.78-8.93-1.26-.24-1.66.88-3.09,2.52-3.36Z"/><path d="M188.81,129.37c5.11-1,5.33,10.39-.24,9.25-3.58-.73-3.48-8.52.24-9.25Z"/><path d="M46.62,145.94c8.24-.71,14.34,6.67,13.45,14.65-.4,3.64-3.7,8.2-3.58,11.28.08,2.15,1.79,3.77,3.95,3.74,1.14-.02,2.72-1.11,3.61,0,1.39,1.73-2.51,3.9-4.07,4.07-5.73.63-8.75-4.28-8.52-9.48.21-4.85,4.08-9.19.35-13.76-3.45-4.23-9.83-3.09-12.37,1.49-.73,1.32-2.05,7.44-4.37,5.89-1.81-1.21-.52-6.86.15-8.67,1.85-5,5.96-8.75,11.4-9.22Z"/></svg>