<?xml version="1.0" encoding="UTF-8"?><svg id="Layer_1" xmlns="http://www.w3.org/2000/svg" viewBox="0 0 122.83 38.42"><path d="M0,20.86l3.44.34-.57,3.61,2.32-3.23c3.01-2,6.67-.81,5.94,3.24,1.92-1.52,1.83-4.4,5.11-4.22,5.9.32,3.9,9.74,4.17,13.67-.35,1.06-3.41.48-4.39.54-.47-.12-.51-.44-.59-.85-.41-2.22.53-6.16-.07-8.17-.15-.51-.62-.92-1.18-.95-.62-.06-1.62.65-1.62,1.23v8.78l-4.87-.34c-.67-.96.29-7-.23-8.73-.59-1.96-2.8-.21-2.8.28v8.78H0v-13.98Z"/><path d="M86.52,20.86h3.59s-.18,3.94-.18,3.94c.71-2.8,3.38-5.19,6.36-3.84,2.24,1.01.56,2.72,2.07,3.84.63-3.39,4.67-5.85,7.38-2.88.42.46,1.24,2.22,1.24,2.71v10.22h-4.67v-8.78c0-1.72-3.23-1.37-3.23.36v8.42h-4.67v-8.78c0-.57-1.17-1.66-1.91-1.21-.51.11-1.32,1.57-1.32,1.92v8.07h-4.67v-13.98Z"/><path d="M109.14,20.86l3.44.33-.02,3.61c.96-2.08,1.67-4.1,4.35-4.29,7.39-.53,7.66,13.08,2.03,14.24-1.32.27-2.84.27-3.97-.53-.62-.44-.59-1.07-1.15-1.18v5.02l-4.67.36v-17.57ZM115.5,24.85c-2.44.65-2.06,7.28.58,7.04,2.83-.26,2.57-7.88-.58-7.04Z"/><path d="M64.62,17.27h4.31c.27,2.6-.3,5-.72,7.53,1.23-1.36,1.6-3.66,3.75-3.96,1.67-.23,3.44-.12,4.46,1.32.19.27,1.13,2.32,1.13,2.46v10.22l-4.69-.16c-.98-.68.25-7.59-.52-9.16-.14-.28-.49-.59-.79-.67-.95-.45-2.26,1.33-2.26,1.92v8.07h-4.67v-17.57Z"/><path d="M35.18,34.84l-3.43-.34-.16-3.61c-1.3,1.37-1.43,3.21-3.58,3.77-7.29,1.9-9.19-7.52-.86-8.39.81-.08,3.25.39,3.37-.23-1.39-3.24-5.52-1.08-7.9-.17l.22-3.98c2.91-1.37,8.3-2.23,10.74.38.39.41,1.6,2.69,1.6,3.06v9.5ZM30.15,29.1c-1.08-.06-4.62-.34-4.24,1.56.41,2.05,4.48.53,4.24-1.56Z"/><path d="M62.46,26.59c-2.1-1.01-6.85-2.48-7.66.79-.91,3.69,5.92,3.36,7.66,1.37-.16,2.84,1.05,5.2-2.49,5.94-6.15,1.28-10.18-2.37-9.32-8.59.67-4.83,5.86-6.41,10.02-5.05,2.9.94,1.51,3.09,1.79,5.56Z"/><path d="M37.34.42v8.42c0,1.66,3.52,2.18,4.58,1.16.06-.06.81-1.44.81-1.52V.42h3.23v9.5c0,.13-1.21,1.92-1.44,2.15-2.27,2.31-7.01,2.34-9.16-.17-.52-.61-1.61-2.75-1.61-3.42V.42h3.59Z"/><path d="M18.67,13.69h-3.23V5.26c0-1.53-3.45-2.83-4.84-1.24-.16.18-.91,1.85-.91,1.96v7.71h-3.23V4.9c0-.48,1.3-2.8,1.78-3.24,2.65-2.48,7.19-2.14,9.35.74.2.27,1.08,1.69,1.08,1.79v9.5Z"/><path d="M44.68,17h3.98l.47.5-.1,17-.43.29c-.97-.05-4.04.52-4.39-.54.28-5.16-.55-11.03-.07-16.1.04-.47,0-.95.54-1.15Z"/><path d="M31.59.42v2.87c-.28.28-3.42-.54-3.95.54v9.86h-3.23V3.29h-3.95s0-2.87,0-2.87h11.13Z"/><path d="M66.06.42v2.87c-.28.28-3.42-.54-3.95.54v9.86h-3.23V3.29h-3.95s0-2.87,0-2.87h11.13Z"/><path d="M84.37,21.57v12.73c-1.1.88-3.97.86-5.03,0v-12.73c1.78.45,3.24.45,5.03,0Z"/><path d="M42,21.57v13.26h-4.67v-13.26c1.6.5,3.07.5,4.67,0Z"/><rect y=".42" width="3.23" height="13.26"/><rect x="49.54" y=".42" width="3.23" height="13.26"/><path d="M42.27,17.72c.5.49.49,1.6.11,2.18-1.63,2.16-7.66.19-5.07-2.11,1.17-1.04,3.9-1.11,4.96-.07Z"/><path d="M81.41,16.98c2-.27,4.23.81,2.99,3.01-1.87,1.55-6.32,1.07-5.24-2.01.22-.36,1.79-.93,2.26-1Z"/></svg>